<svg xmlns="http://www.w3.org/2000/svg" version="1.1" xmlns:xlink="http://www.w3.org/1999/xlink" xmlns:svgjs="http://svgjs.dev/svgjs" width="1000" height="1000" viewBox="0 0 1000 1000"><rect width="1000" height="1000" fill="#ffffff"></rect><g transform="matrix(0.7,0,0,0.7,149.57575757575756,430.03722399924493)"><svg viewBox="0 0 396 79" data-background-color="#920017" preserveAspectRatio="xMidYMid meet" height="199" width="1000" xmlns="http://www.w3.org/2000/svg" xmlns:xlink="http://www.w3.org/1999/xlink"><g id="tight-bounds" transform="matrix(1,0,0,1,0.2400000000000091,0.17738193869098495)"><svg viewBox="0 0 395.52 78.64523612261804" height="78.64523612261804" width="395.52"><g><svg viewBox="0 0 395.52 78.64523612261804" height="78.64523612261804" width="395.52"><g><svg viewBox="0 0 395.52 78.64523612261804" height="78.64523612261804" width="395.52"><g id="textblocktransform"><svg viewBox="0 0 395.52 78.64523612261804" height="78.64523612261804" width="395.52" id="textblock"><g><svg viewBox="0 0 395.52 78.64523612261804" height="78.64523612261804" width="395.52"><g transform="matrix(1,0,0,1,0,0)"><svg width="395.52" viewBox="4.949999809265137 -35.5 181.04000854492188 36" height="78.64523612261804" data-palette-color="#ffffff"><g class="wordmark-text-0" data-fill-palette-color="primary" id="text-0"><path d="M6.45-35L6.45 0 4.95 0 4.95-35 6.45-35ZM36.7-7.05L38.05-6.4Q36.7-3.1 34.25-1.3 31.8 0.5 26.9 0.5L26.9 0.5Q20.75 0.5 18-3.28 15.25-7.05 15.25-15.05L15.25-15.05 15.25-19.95Q15.25-27.95 18-31.73 20.75-35.5 26.9-35.5L26.9-35.5Q31.8-35.5 34.25-33.7 36.7-31.9 38.05-28.6L38.05-28.6 36.7-27.95Q35.55-30.85 33.45-32.43 31.35-34 26.9-34L26.9-34Q24.45-34 22.7-33.38 20.95-32.75 19.55-31.25 18.15-29.75 17.45-26.93 16.75-24.1 16.75-19.95L16.75-19.95 16.75-15.05Q16.75-10.9 17.45-8.08 18.15-5.25 19.55-3.75 20.95-2.25 22.7-1.63 24.45-1 26.9-1L26.9-1Q31.35-1 33.45-2.58 35.55-4.15 36.7-7.05L36.7-7.05ZM66.7-35L66.7 0 65.2 0 65.2-17.5 47.2-17.5 47.2 0 45.7 0 45.7-35 47.2-35 47.2-19 65.2-19 65.2-35 66.7-35ZM80.49 0L80.49-1.5 95.99-1.5 78.09-32.45 78.09 0 76.59 0 76.59-35 78.34-35 97.04-2.65 97.04-35 98.54-35 98.54 0 80.49 0ZM109.34 0L109.34-1.5 127.74-1.5 117.14-30.65 105.99 0 104.39 0 117.14-35.05 129.89 0 109.34 0ZM153.69-19.8L153.69-18.3 138.84-18.3 154.14-33.5 137.24-33.5 137.24-1.5 156.64-1.5 156.64 0 135.74 0 135.74-35 157.79-35 142.49-19.8 153.69-19.8ZM165.44 0L165.44-1.5 183.84-1.5 173.24-30.65 162.09 0 160.49 0 173.24-35.05 185.99 0 165.44 0Z" fill="#000000" data-fill-palette-color="primary"></path></g></svg></g></svg></g></svg></g></svg></g></svg></g><defs></defs></svg><rect width="395.52" height="78.64523612261804" fill="none" stroke="none" visibility="hidden"></rect></g></svg></g></svg>