<svg xmlns="http://www.w3.org/2000/svg" version="1.1" xmlns:xlink="http://www.w3.org/1999/xlink" xmlns:svgjs="http://svgjs.dev/svgjs" width="1000" height="1000" viewBox="0 0 1000 1000"><rect width="1000" height="1000" fill="#000000"></rect><g transform="matrix(0.7,0,0,0.7,150,150.00048873778684)"><svg viewBox="0 0 280 280" data-background-color="#910016" preserveAspectRatio="xMidYMid meet" height="1000" width="1000" xmlns="http://www.w3.org/2000/svg" xmlns:xlink="http://www.w3.org/1999/xlink"><g id="tight-bounds" transform="matrix(1,0,0,1,0,0.000025690515315091034)"><svg viewBox="0 0 280 280" height="280" width="280"><g><svg viewBox="0 0 280 280" height="280" width="280"><g><svg viewBox="0 0 280 280" height="280" width="280"><g id="textblocktransform"><svg viewBox="0 0 280 280" height="280" width="280" id="textblock"><g><svg viewBox="0 0 280 280" height="280" width="280"><g transform="matrix(1,0,0,1,74.00336708925556,80.20918813287983)"><svg viewBox="0 0 131.99326582148888 119.58162373424035" height="119.58162373424035" width="131.99326582148888"><g><svg xmlns="http://www.w3.org/2000/svg" data-name="EX Color line copy" viewBox="2.499009847640991 7 58.50099182128906 53.000003814697266" x="0" y="0" height="119.58162373424035" width="131.99326582148888" class="icon-o-0" data-fill-palette-color="accent" id="o-0"><path d="M59.5 45H57.159a9.991 9.991 0 0 0-18.318 0H36.5A1.5 1.5 0 0 0 35 46.5v3a1.483 1.483 0 0 0 0.092 0.5 1.483 1.483 0 0 0-0.092 0.5v3a1.483 1.483 0 0 0 0.092 0.5 1.483 1.483 0 0 0-0.092 0.5v3A1.5 1.5 0 0 0 36.5 59h8a1.485 1.485 0 0 0 0.944-0.344A9.9 9.9 0 0 0 55.981 55H59.5A1.5 1.5 0 0 0 61 53.5v-3a1.483 1.483 0 0 0-0.092-0.5A1.483 1.483 0 0 0 61 49.5v-3A1.5 1.5 0 0 0 59.5 45ZM59 47v2H58a9.983 9.983 0 0 0-0.2-2ZM37 51h1.2a9.843 9.843 0 0 0 0.639 2H37Zm0-4h1.2a9.983 9.983 0 0 0-0.2 2H37Zm0 10V55h3.019a10.088 10.088 0 0 0 2.007 2Zm11 0a8 8 0 1 1 8-8A8.009 8.009 0 0 1 48 57Zm11-4H57.159a9.843 9.843 0 0 0 0.639-2H59Z" fill="#ffffff" data-fill-palette-color="accent"></path><rect x="14" y="12" width="12" height="2" fill="#ffffff" data-fill-palette-color="accent"></rect><path d="M45.569 36.822A1 1 0 0 0 46 36V30.688l7.541-4.847a1 1 0 0 0-0.015-1.692L33 11.443V8a1 1 0 0 0-1-1H13a1 1 0 0 0-0.707 0.293l-5 5A1 1 0 0 0 7 13V39.844l-0.261 0.492-2.012 0.352a1 1 0 0 0-0.818 1.125L4.2 43.837l-1.42 1.468a1 1 0 0 0 0 1.39L4.2 48.163l-0.286 2.024a1 1 0 0 0 0.818 1.125l2.012 0.352 0.115 0.217V59a1 1 0 0 0 1.707 0.707l2.293-2.293 2.293 2.293a1 1 0 0 0 0.707 0.293 0.987 0.987 0 0 0 0.383-0.076A1 1 0 0 0 14.854 59V57H32a1 1 0 0 0 1-1V45.524ZM44 35.476L32 43.784 20 35.476v-3.5l11.459 7.367a1 1 0 0 0 1.082 0L44 31.974ZM17.671 44l-0.158-0.163L17.772 42H25.91L28.8 44ZM32 37.312l-19.126-12.3L32 13.176l19.126 11.84ZM13.414 9H31v2.443L23.638 16H11v2h9.407l-3.23 2H11v2h2.946l-3.472 2.149a1 1 0 0 0-0.015 1.692L13.818 28H11v2h5.929L18 30.688V32H11v2h7v2H11v2h9.132l2.889 2h-8.23l-0.779-1.469a1 1 0 0 0-1.323-0.429l-1.835 0.9-1.835-0.9A0.133 0.133 0 0 0 9 38.1V13.414ZM6.025 49.509l0.219-1.55a1 1 0 0 0-0.271-0.835L4.885 46l1.088-1.124a1 1 0 0 0 0.271-0.835l-0.219-1.55 1.541-0.269a1 1 0 0 0 0.71-0.517l0.734-1.382 1.4 0.687a1 1 0 0 0 0.878 0l1.405-0.687 0.734 1.382a1 1 0 0 0 0.71 0.517l1.541 0.269-0.219 1.55a1 1 0 0 0 0.271 0.835L16.823 46l-1.088 1.124a1 1 0 0 0-0.271 0.835l0.219 1.55-1.541 0.269a1 1 0 0 0-0.71 0.517L12.7 51.677l-1.405-0.687a1 1 0 0 0-0.878 0l-1.4 0.687L8.276 50.3a1 1 0 0 0-0.71-0.517Zm5.536 5.784a1 1 0 0 0-1.414 0L8.854 56.586V53.943a0.877 0.877 0 0 0 0.165-0.045l1.835-0.9 1.835 0.9a0.942 0.942 0 0 0 0.165 0.039v2.649ZM14.854 55V51.881l0.115-0.217 2.012-0.352a1 1 0 0 0 0.818-1.125L17.772 50H29V48H17.671l1.262-1.3a0.994 0.994 0 0 0 0.281-0.7H29V44.14l2 1.384V55Z" fill="#ffffff" data-fill-palette-color="accent"></path><path d="M49 43H47v2.051A2.5 2.5 0 0 0 47.5 50h1a0.5 0.5 0 0 1 0 1H45v2h2v2.5h2V52.949A2.5 2.5 0 0 0 48.5 48h-1a0.5 0.5 0 0 1 0-1H51V45H49Z" fill="#ffffff" data-fill-palette-color="accent"></path><polygon points="42 14 42 12 44 12 44 10 42 10 42 8 40 8 40 10 38 10 38 12 40 12 40 14 42 14" fill="#ffffff" data-fill-palette-color="accent"></polygon><polygon points="57 37 57 35 59 35 59 33 57 33 57 31 55 31 55 33 53 33 53 35 55 35 55 37 57 37" fill="#ffffff" data-fill-palette-color="accent"></polygon><path d="M11 49.854A3.854 3.854 0 1 0 7.146 46 3.858 3.858 0 0 0 11 49.854Zm0-5.708A1.854 1.854 0 1 1 9.146 46 1.856 1.856 0 0 1 11 44.146Z" fill="#ffffff" data-fill-palette-color="accent"></path></svg></g></svg></g><g><path d="M5.624 96.24l1.152 0.432c-0.288 0.768-0.332 1.381-0.134 1.839 0.198 0.459 0.5 0.803 0.904 1.033 0.399 0.228 0.76 0.402 1.085 0.524v0l8.761 3.283c1.298 0.486 2.585 0.869 3.861 1.148 1.282 0.281 2.501 0.361 3.657 0.239 1.156-0.122 2.204-0.555 3.145-1.298 0.94-0.743 1.702-1.892 2.284-3.446v0c0.624-1.666 0.741-3.174 0.35-4.523-0.397-1.352-1.195-2.537-2.394-3.555-1.207-1.014-2.71-1.873-4.51-2.576v0l-9.724-3.762c-0.462-0.173-0.903-0.353-1.325-0.539-0.415-0.184-0.794-0.351-1.136-0.5v0c-0.132 0.427-0.263 0.844-0.394 1.25-0.127 0.415-0.256 0.836-0.388 1.264v0l-1.535-0.575 2.421-6.459 1.151 0.432c-0.305 0.889-0.336 1.571-0.095 2.046 0.242 0.475 0.672 0.846 1.291 1.113 0.61 0.271 1.333 0.564 2.169 0.877v0l8.035 3.086c1.504 0.564 2.878 1.264 4.123 2.1 1.245 0.837 2.264 1.82 3.058 2.95 0.793 1.13 1.273 2.405 1.437 3.827 0.165 1.421-0.079 3.002-0.731 4.743v0c-0.695 1.853-1.521 3.319-2.481 4.397-0.959 1.078-2.089 1.804-3.389 2.178-1.3 0.374-2.788 0.432-4.463 0.174-1.673-0.264-3.586-0.799-5.739-1.606v0l-7.048-2.642c-0.605-0.227-1.314-0.51-2.126-0.85-0.81-0.346-1.429-0.61-1.859-0.793v0c-0.129 0.421-0.266 0.843-0.41 1.266-0.15 0.42-0.292 0.844-0.423 1.272v0l-1.498-0.561z" fill="#ffffff" data-fill-palette-color="primary"></path><path d="M51.154 67.937l-1.005 1.469-24.768 0.993c-0.375 0.018-0.74 0.031-1.093 0.04-0.351 0.018-0.713 0.033-1.084 0.045v0l-0.023 0.033 13.172 8.877c0.512 0.35 1.023 0.7 1.534 1.05 0.506 0.346 0.993 0.708 1.462 1.085v0c0.226-0.378 0.455-0.759 0.685-1.143 0.23-0.384 0.463-0.765 0.698-1.145v0l1.345 0.92-3.832 5.602-1.015-0.694c0.433-0.633 0.606-1.18 0.519-1.644-0.087-0.463-0.289-0.864-0.607-1.202-0.323-0.342-0.639-0.619-0.946-0.829v0l-14.71-10.099c-0.346-0.237-0.696-0.476-1.048-0.716-0.346-0.237-0.682-0.467-1.006-0.689v0c-0.2 0.34-0.41 0.688-0.631 1.046-0.215 0.362-0.43 0.723-0.645 1.085v0l-1.353-0.926 2.489-3.638 23.234-0.965c0.531-0.032 1.056-0.057 1.576-0.072 0.52-0.016 1.045-0.04 1.575-0.073v0l0.017-0.025-14.002-9.627c-0.407-0.278-0.793-0.558-1.158-0.84-0.359-0.278-0.687-0.53-0.983-0.757v0c-0.23 0.384-0.461 0.762-0.693 1.136-0.23 0.384-0.46 0.767-0.69 1.151v0l-1.353-0.926 3.854-5.634 1.015 0.694c-0.493 0.769-0.676 1.407-0.547 1.915 0.129 0.508 0.464 0.963 1.004 1.365 0.535 0.398 1.171 0.849 1.908 1.353v0z" fill="#ffffff" data-fill-palette-color="primary"></path><path d="M43.244 37.809l0.871 0.868c-0.626 0.665-0.927 1.264-0.903 1.796 0.024 0.532 0.263 1.048 0.715 1.548 0.443 0.499 0.981 1.064 1.613 1.694v0l11.157 11.136c0.472 0.471 0.875 0.883 1.21 1.236 0.335 0.344 0.599 0.65 0.792 0.918v0c0.297-0.335 0.593-0.67 0.89-1.005 0.297-0.335 0.593-0.665 0.89-0.99v0l1.153 1.151-5.896 5.908-0.871-0.869c0.631-0.698 0.934-1.304 0.91-1.817-0.029-0.518-0.27-1.032-0.722-1.541-0.458-0.504-0.993-1.062-1.606-1.673v0l-11.348-11.327c-0.349-0.348-0.677-0.694-0.984-1.038-0.302-0.339-0.578-0.647-0.827-0.925v0c-0.292 0.33-0.588 0.66-0.89 0.991-0.297 0.335-0.593 0.67-0.89 1.004v0l-1.16-1.158z" fill="#ffffff" data-fill-palette-color="primary"></path><path d="M75.137 46.995l-0.859 0.584-18.057-11.599c-1.16-0.735-2.05-1.363-2.669-1.884-0.626-0.518-1.122-0.982-1.49-1.393v0c-0.272 0.217-0.551 0.423-0.838 0.618-0.287 0.195-0.566 0.401-0.837 0.617v0l-0.922-1.356 7.119-4.837 0.689 1.067c-0.984 0.757-1.387 1.486-1.209 2.187 0.178 0.701 0.819 1.425 1.924 2.174v0c1.311 0.874 2.574 1.719 3.79 2.536 1.21 0.821 2.54 1.698 3.987 2.632v0c1.266 0.808 2.487 1.585 3.664 2.333 1.178 0.738 2.125 1.372 2.839 1.902v0l0.066-0.045c-0.261-0.87-0.498-1.712-0.712-2.525-0.209-0.817-0.456-1.785-0.741-2.905v0c-0.551-2.139-1.02-3.944-1.406-5.413-0.386-1.47-0.71-2.728-0.971-3.776-0.27-1.049-0.503-1.938-0.7-2.666v0c-0.176-0.662-0.318-1.226-0.425-1.693-0.108-0.467-0.183-0.862-0.226-1.188v0c-0.371 0.284-0.746 0.568-1.127 0.85-0.371 0.284-0.755 0.578-1.154 0.881v0l-0.921-1.356 6.234-4.235 0.691 1.016c-0.872 0.649-1.405 1.353-1.598 2.113-0.187 0.756-0.098 1.819 0.269 3.189v0c0.023 0.129 0.065 0.303 0.124 0.52 0.055 0.212 0.144 0.562 0.267 1.051 0.119 0.483 0.301 1.19 0.546 2.119 0.235 0.928 0.557 2.183 0.964 3.768 0.398 1.582 0.898 3.575 1.5 5.978 0.601 2.403 1.331 5.315 2.19 8.736z" fill="#ffffff" data-fill-palette-color="primary"></path><path d="M96.402 24.554l-1.131 0.482c-0.429-1.005-0.872-1.664-1.331-1.975-0.455-0.32-1-0.4-1.634-0.238-0.628 0.159-1.421 0.472-2.381 0.939v0l-2.449 1.163 3.332 7.816c0.261 0.613 0.479 1.14 0.651 1.58 0.177 0.432 0.305 0.808 0.384 1.13v0l6.476-2.88c0.995-0.453 1.789-0.987 2.382-1.602 0.599-0.617 0.938-1.403 1.016-2.357 0.081-0.947-0.164-2.092-0.736-3.435v0l1.159-0.493 2.635 6.743-17.618 7.51-0.482-1.131c0.846-0.411 1.354-0.86 1.524-1.345 0.167-0.491 0.136-1.058-0.094-1.699-0.236-0.638-0.524-1.356-0.863-2.152v0l-6.287-14.75c-0.193-0.454-0.368-0.897-0.524-1.33-0.153-0.427-0.294-0.817-0.422-1.168v0c-0.394 0.197-0.793 0.392-1.195 0.586-0.4 0.2-0.801 0.399-1.201 0.598v0l-0.643-1.508 16.423-7 2.713 5.907-1.122 0.478c-0.572-1.343-1.211-2.273-1.917-2.79-0.706-0.518-1.456-0.748-2.251-0.693-0.795 0.056-1.62 0.278-2.477 0.665v0l-2.911 1.328c-0.829 0.383-1.362 0.798-1.598 1.246-0.242 0.451-0.279 0.985-0.111 1.601 0.166 0.61 0.449 1.384 0.849 2.322v0l2.328 5.462 6.43-2.708-1.489-2.831 1.508-0.643z" fill="#ffffff" data-fill-palette-color="primary"></path><path d="M117.852 28.797l-8.2 1.556-0.229-1.208c0.914-0.221 1.506-0.55 1.776-0.988 0.268-0.444 0.359-1.004 0.271-1.679-0.094-0.674-0.222-1.437-0.383-2.288v0l-2.99-15.752c-0.092-0.484-0.168-0.955-0.227-1.412-0.058-0.45-0.112-0.86-0.163-1.23v0c-0.427 0.108-0.858 0.214-1.293 0.316-0.434 0.109-0.867 0.219-1.301 0.329v0l-0.305-1.611c1.358-0.278 2.735-0.563 4.131-0.855 1.39-0.291 2.793-0.544 4.21-0.759v0c2.361-0.428 4.314-0.517 5.861-0.268 1.546 0.249 2.751 0.79 3.615 1.624 0.862 0.827 1.423 1.921 1.681 3.282v0c0.206 0.944 0.213 1.944 0.019 2.998-0.186 1.059-0.699 2.069-1.541 3.029-0.834 0.965-2.137 1.82-3.909 2.563v0c0.549 0.248 1.057 0.603 1.525 1.064 0.462 0.469 0.993 1.012 1.592 1.631v0l3.214 3.429c0.537 0.576 1.051 1.089 1.544 1.539 0.486 0.45 1.012 0.778 1.58 0.982 0.568 0.204 1.228 0.235 1.981 0.092v0l0.229 1.208-4.586 0.87c-0.828-0.501-1.54-1.02-2.137-1.558-0.592-0.546-1.219-1.169-1.881-1.871v0l-3.186-3.435c-0.411-0.451-0.88-0.973-1.406-1.564-0.526-0.592-1.089-1.072-1.687-1.44v0c-0.388 0.101-0.795 0.192-1.22 0.272-0.426 0.081-0.847 0.147-1.265 0.2v0l1.342 7.07c0.124 0.655 0.225 1.222 0.303 1.703 0.083 0.473 0.129 0.874 0.137 1.205v0c0.29-0.082 0.577-0.157 0.863-0.225 0.292-0.069 0.58-0.144 0.863-0.225 0.291-0.076 0.58-0.141 0.869-0.195v0zM115.176 16.089v0c1.332-0.307 2.466-0.75 3.4-1.328 0.935-0.578 1.613-1.347 2.034-2.309 0.421-0.962 0.5-2.137 0.237-3.524v0c-0.175-0.923-0.456-1.707-0.844-2.353-0.387-0.646-0.893-1.146-1.516-1.503-0.619-0.364-1.365-0.582-2.24-0.653-0.868-0.073-1.862-0.003-2.982 0.21v0c-0.897 0.17-1.488 0.469-1.773 0.896-0.284 0.434-0.381 0.978-0.291 1.632 0.083 0.649 0.207 1.412 0.374 2.29v0l1.327 6.992c0.398-0.048 0.773-0.092 1.125-0.132 0.357-0.047 0.74-0.12 1.149-0.218z" fill="#ffffff" data-fill-palette-color="primary"></path><path d="M149.884 8.504l-1.339-0.008c-0.067-1.187-0.343-2.311-0.831-3.373-0.494-1.069-1.208-1.939-2.144-2.612-0.936-0.672-2.133-1.012-3.593-1.02v0c-1.533-0.009-2.708 0.414-3.525 1.269-0.825 0.862-1.24 1.875-1.247 3.042v0c-0.006 1.04 0.286 1.914 0.874 2.624 0.589 0.703 1.359 1.324 2.309 1.862 0.95 0.539 1.956 1.057 3.019 1.557v0c0.937 0.425 1.874 0.884 2.811 1.376 0.937 0.485 1.787 1.04 2.55 1.664 0.763 0.624 1.372 1.364 1.826 2.219 0.448 0.856 0.669 1.876 0.663 3.063v0c-0.008 1.359-0.355 2.57-1.041 3.632-0.686 1.056-1.673 1.883-2.963 2.482-1.29 0.599-2.861 0.893-4.713 0.883v0c-1.113-0.006-2.261-0.173-3.446-0.5-1.191-0.327-2.241-0.803-3.15-1.427v0l0.18 1.6-1.929-0.011-0.184-7.908 1.449 0.009c0.114 2.18 0.861 3.837 2.241 4.971 1.373 1.127 3.039 1.697 4.998 1.708v0c0.96 0.005 1.85-0.166 2.672-0.515 0.815-0.355 1.468-0.878 1.958-1.568 0.484-0.69 0.728-1.532 0.734-2.525v0c0.006-1.113-0.285-2.041-0.874-2.784-0.589-0.743-1.351-1.391-2.288-1.942-0.936-0.552-1.936-1.077-2.999-1.577v0c-0.937-0.425-1.861-0.877-2.771-1.355-0.91-0.472-1.743-1.013-2.5-1.624-0.75-0.611-1.352-1.337-1.807-2.179-0.448-0.842-0.669-1.86-0.662-3.053v0c0.004-0.64 0.118-1.329 0.342-2.067 0.231-0.745 0.625-1.456 1.181-2.132 0.564-0.676 1.333-1.229 2.309-1.656 0.982-0.428 2.226-0.637 3.732-0.629v0c0.94 0.005 1.998 0.141 3.176 0.408 1.171 0.267 2.261 0.773 3.27 1.518v0l-0.14-1.59 1.899 0.011z" fill="#ffffff" data-fill-palette-color="primary"></path><path d="M168.864 3.215l-0.198 1.213c-0.905-0.121-1.567-0.016-1.985 0.314-0.418 0.33-0.698 0.825-0.84 1.484-0.147 0.651-0.292 1.418-0.435 2.299v0l-2.537 15.558c-0.107 0.658-0.207 1.226-0.298 1.703-0.084 0.472-0.178 0.866-0.284 1.18v0c0.445 0.046 0.89 0.091 1.335 0.136 0.445 0.046 0.886 0.094 1.324 0.145v0l-0.263 1.608-8.237-1.343 0.197-1.214c0.935 0.105 1.604-0.002 2.007-0.32 0.404-0.326 0.681-0.821 0.83-1.486 0.142-0.665 0.283-1.426 0.423-2.28v0l2.58-15.825c0.079-0.487 0.169-0.955 0.269-1.404 0.099-0.443 0.189-0.847 0.269-1.212v0c-0.438-0.044-0.879-0.093-1.323-0.145-0.445-0.046-0.89-0.091-1.335-0.137v0l0.264-1.618z" fill="#ffffff" data-fill-palette-color="primary"></path><path d="M195.669 20.212l-1.329-0.469c0.467-1.383 0.732-2.575 0.797-3.577 0.064-1.002-0.145-1.843-0.626-2.521-0.479-0.685-1.329-1.229-2.551-1.632v0l-2.979-1.052-6.759 19.059c-0.222 0.628-0.42 1.17-0.595 1.624-0.172 0.448-0.338 0.817-0.496 1.107v0c0.499 0.148 0.992 0.294 1.478 0.437 0.493 0.146 0.988 0.296 1.484 0.45v0l-0.542 1.536-8.229-2.904 0.409-1.16c0.902 0.269 1.575 0.273 2.02 0.014 0.447-0.266 0.803-0.713 1.067-1.341 0.264-0.628 0.536-1.337 0.815-2.129v0l6.29-17.73-3.614-1.233c-1.47-0.519-2.679-0.398-3.626 0.363-0.956 0.765-1.8 2.188-2.535 4.268v0l-1.291-0.456 2.816-7.317 20.397 7.2z" fill="#ffffff" data-fill-palette-color="primary"></path><path d="M200.218 43.668l-7.121-4.355 0.642-1.049c0.826 0.45 1.486 0.604 1.979 0.461 0.497-0.149 0.94-0.503 1.329-1.062 0.383-0.562 0.801-1.213 1.253-1.952v0l8.364-13.678c0.257-0.421 0.517-0.82 0.78-1.199 0.259-0.373 0.495-0.713 0.707-1.021v0c-0.389-0.207-0.779-0.418-1.171-0.634-0.395-0.21-0.79-0.42-1.185-0.63v0l0.856-1.399c1.193 0.706 2.405 1.42 3.635 2.141 1.225 0.718 2.434 1.473 3.629 2.266v0c2.036 1.269 3.543 2.515 4.522 3.738 0.978 1.223 1.508 2.433 1.587 3.63 0.084 1.192-0.236 2.379-0.959 3.562v0c-0.481 0.838-1.148 1.583-1.999 2.234-0.849 0.66-1.908 1.063-3.176 1.209-1.266 0.155-2.806-0.087-4.618-0.727v0c0.24 0.553 0.378 1.157 0.415 1.813 0.028 0.657 0.055 1.417 0.084 2.277v0l0.078 4.699c0.011 0.788 0.047 1.513 0.111 2.177 0.057 0.66 0.228 1.256 0.511 1.789 0.284 0.533 0.752 0.999 1.406 1.399v0l-0.642 1.048-3.982-2.435c-0.277-0.927-0.456-1.79-0.537-2.59-0.072-0.802-0.118-1.685-0.137-2.649v0l-0.053-4.684c-0.002-0.61 0.001-1.311 0.009-2.104 0.008-0.792-0.087-1.525-0.283-2.2v0c-0.355-0.186-0.717-0.392-1.087-0.618-0.37-0.226-0.726-0.46-1.071-0.701v0l-3.754 6.14c-0.348 0.569-0.654 1.057-0.92 1.464-0.256 0.406-0.492 0.734-0.707 0.985v0c0.27 0.134 0.533 0.271 0.79 0.413 0.263 0.145 0.526 0.283 0.79 0.413 0.266 0.139 0.524 0.286 0.775 0.439v0zM206.77 32.455v0c1.193 0.667 2.33 1.101 3.411 1.301 1.081 0.2 2.1 0.085 3.058-0.345 0.958-0.43 1.805-1.247 2.542-2.452v0c0.49-0.802 0.809-1.571 0.956-2.31 0.147-0.738 0.109-1.449-0.114-2.132-0.214-0.685-0.621-1.348-1.221-1.988-0.595-0.637-1.378-1.253-2.35-1.848v0c-0.779-0.476-1.417-0.652-1.916-0.527-0.502 0.131-0.939 0.469-1.311 1.014-0.375 0.536-0.795 1.185-1.261 1.947v0l-3.713 6.072c0.327 0.231 0.634 0.451 0.921 0.658 0.297 0.205 0.629 0.408 0.998 0.61z" fill="#ffffff" data-fill-palette-color="primary"></path><path d="M217.996 56.978l-4.916-4.895 0.867-0.871c0.524 0.522 1.064 0.782 1.62 0.781 0.561 0.003 1.178-0.149 1.851-0.457 0.673-0.308 1.457-0.665 2.352-1.072v0l20.102-9.353 0.631 0.628-9.038 20.793c-0.225 0.509-0.539 1.141-0.943 1.896-0.399 0.75-0.817 1.312-1.254 1.685v0c0.316 0.277 0.633 0.555 0.949 0.832 0.316 0.277 0.63 0.557 0.942 0.839v0l-1.15 1.155-6.021-5.995 0.868-0.871c0.68 0.649 1.267 0.937 1.762 0.865 0.485-0.072 0.895-0.327 1.228-0.766 0.329-0.434 0.589-0.871 0.781-1.309v0l1.541-3.389-6.991-6.65-3.721 1.895c-0.541 0.298-0.981 0.523-1.32 0.675-0.344 0.147-0.727 0.31-1.151 0.49v0c0.373 0.334 0.739 0.66 1.098 0.98 0.359 0.32 0.713 0.639 1.062 0.959v0zM231.827 46.656l-7.132 3.437 6.071 6.044 3.137-6.877c0.352-0.741 0.692-1.479 1.02-2.215 0.333-0.731 0.673-1.465 1.02-2.2v0l-0.056-0.057c-0.664 0.317-1.332 0.63-2.006 0.938-0.673 0.308-1.358 0.618-2.054 0.93z" fill="#ffffff" data-fill-palette-color="primary"></path><path d="M258.284 79.52l-0.738-1.118c1.805-1.487 2.866-3.157 3.184-5.011 0.317-1.854-0.117-3.679-1.303-5.476v0c-0.723-1.096-1.634-1.968-2.732-2.616-1.097-0.658-2.317-1.061-3.663-1.212-1.345-0.15-2.762-0.029-4.251 0.363-1.49 0.392-2.999 1.093-4.529 2.102v0c-1.941 1.281-3.41 2.781-4.407 4.502-0.993 1.725-1.489 3.49-1.488 5.294 0.01 1.806 0.518 3.471 1.524 4.994v0c0.888 1.346 2.065 2.47 3.53 3.371 1.467 0.892 3.052 1.371 4.756 1.436v0l-0.122 1.23c-1.802-0.08-3.375-0.419-4.719-1.017-1.341-0.592-2.469-1.321-3.384-2.186-0.909-0.869-1.642-1.726-2.2-2.572v0c-1.024-1.552-1.684-3.156-1.979-4.814-0.295-1.657-0.251-3.284 0.133-4.879 0.381-1.601 1.072-3.095 2.073-4.481 0.995-1.383 2.266-2.585 3.812-3.606v0c1.468-0.969 3.042-1.688 4.72-2.157 1.669-0.471 3.357-0.63 5.062-0.478 1.7 0.156 3.326 0.691 4.88 1.605 1.554 0.915 2.924 2.27 4.109 4.067v0c0.763 1.157 1.329 2.353 1.697 3.587 0.377 1.236 0.557 2.543 0.539 3.92v0l1.572-1.265 1.107 1.676z" fill="#ffffff" data-fill-palette-color="primary"></path><path d="M248.347 101.686l-2.887-7.831 1.154-0.426c0.369 0.865 0.791 1.395 1.267 1.589 0.483 0.191 1.05 0.188 1.701-0.009 0.649-0.204 1.38-0.456 2.193-0.755v0l15.044-5.547c0.463-0.171 0.914-0.323 1.355-0.457 0.434-0.132 0.83-0.253 1.187-0.363v0c-0.177-0.403-0.352-0.811-0.526-1.223-0.179-0.41-0.359-0.819-0.538-1.23v0l1.538-0.567 2.887 7.831-1.153 0.426c-0.341-0.847-0.758-1.372-1.251-1.574-0.493-0.202-1.062-0.202-1.705 0-0.639 0.193-1.378 0.444-2.215 0.753v0l-5.703 2.103 0.965 2.616 8.461 1.824c0.573 0.13 1.22 0.314 1.94 0.553 0.718 0.232 1.35 0.511 1.895 0.835v0c-0.152-0.335-0.295-0.683-0.428-1.046-0.131-0.356-0.274-0.705-0.428-1.046v0l1.434-0.529 2.76 7.484-1.154 0.425c-0.428-0.95-0.911-1.759-1.449-2.427-0.54-0.675-1.257-1.241-2.15-1.7-0.896-0.465-2.127-0.856-3.693-1.174v0l-6.689-1.412c-0.145 0.821-0.403 1.537-0.773 2.15-0.364 0.61-0.74 1.221-1.125 1.832v0l-3.748 5.813c-0.832 1.308-1.418 2.348-1.758 3.12-0.334 0.77-0.486 1.408-0.455 1.915 0.028 0.501 0.133 0.995 0.312 1.483v0l-1.154 0.425-1.566-4.248c-0.085-0.231-0.036-0.598 0.149-1.099 0.182-0.508 0.452-1.076 0.809-1.705 0.362-0.638 0.748-1.295 1.159-1.972v0l4.098-6.251c0.418-0.658 0.805-1.302 1.163-1.931 0.362-0.638 0.593-1.213 0.695-1.727v0l-0.667-1.693-7.69 2.836c-0.625 0.231-1.168 0.424-1.63 0.579-0.452 0.16-0.841 0.271-1.166 0.334v0c0.179 0.41 0.359 0.819 0.539 1.229 0.179 0.41 0.355 0.817 0.525 1.223v0z" fill="#ffffff" data-fill-palette-color="primary"></path><path d="M36.905 179.468l-1.151 0.432c-0.288-0.768-0.657-1.259-1.108-1.475-0.451-0.215-0.904-0.277-1.36-0.183-0.45 0.09-0.837 0.196-1.162 0.318v0l-8.761 3.283c-1.298 0.486-2.519 1.044-3.665 1.672-1.151 0.631-2.123 1.372-2.913 2.223-0.791 0.852-1.297 1.867-1.517 3.045-0.22 1.178-0.039 2.545 0.543 4.099v0c0.624 1.666 1.527 2.879 2.709 3.639 1.188 0.758 2.568 1.126 4.14 1.106 1.576-0.029 3.274-0.369 5.093-1.022v0l9.801-3.556c0.462-0.173 0.913-0.328 1.352-0.464 0.434-0.134 0.829-0.257 1.186-0.37v0c-0.182-0.409-0.357-0.809-0.525-1.201-0.177-0.396-0.356-0.799-0.538-1.208v0l1.535-0.575 2.42 6.458-1.151 0.432c-0.355-0.87-0.779-1.405-1.274-1.604-0.494-0.199-1.063-0.196-1.705 0.009-0.638 0.196-1.375 0.451-2.211 0.764v0l-8.083 2.955c-1.504 0.564-3 0.939-4.488 1.127-1.488 0.188-2.903 0.116-4.244-0.214-1.341-0.33-2.54-0.977-3.598-1.939-1.058-0.963-1.914-2.314-2.566-4.056v0c-0.695-1.853-1.035-3.501-1.02-4.944 0.014-1.443 0.389-2.732 1.122-3.869 0.734-1.136 1.817-2.158 3.25-3.064 1.435-0.901 3.228-1.754 5.381-2.561v0l7.048-2.642c0.605-0.227 1.326-0.479 2.161-0.756 0.838-0.271 1.478-0.479 1.922-0.624v0c-0.179-0.402-0.354-0.81-0.522-1.224-0.163-0.416-0.335-0.828-0.517-1.237v0l1.498-0.561z" fill="#ffffff" data-fill-palette-color="primary"></path><path d="M34.867 230.635l-1.005-1.468 8.052-23.444c0.12-0.356 0.239-0.701 0.359-1.033 0.111-0.334 0.228-0.676 0.351-1.027v0l-0.023-0.033-13.047 9.058c-0.512 0.35-1.023 0.7-1.535 1.05-0.506 0.346-1.02 0.669-1.541 0.969v0c0.27 0.348 0.543 0.699 0.817 1.052 0.274 0.353 0.545 0.709 0.814 1.066v0l-1.345 0.92-3.832-5.602 1.015-0.694c0.433 0.633 0.881 0.992 1.343 1.079 0.463 0.087 0.91 0.044 1.341-0.129 0.436-0.177 0.808-0.371 1.116-0.582v0l14.743-10.049c0.346-0.237 0.696-0.476 1.048-0.717 0.346-0.237 0.682-0.467 1.007-0.688v0c-0.244-0.309-0.493-0.632-0.747-0.967-0.259-0.331-0.518-0.663-0.777-0.995v0l1.353-0.925 2.489 3.638-7.522 22.004c-0.162 0.507-0.33 1.005-0.504 1.495-0.173 0.49-0.341 0.988-0.503 1.495v0l0.017 0.024 14.048-9.561c0.407-0.278 0.808-0.536 1.202-0.774 0.389-0.234 0.743-0.448 1.063-0.642v0c-0.274-0.353-0.544-0.706-0.809-1.058-0.274-0.353-0.548-0.707-0.822-1.06v0l1.353-0.925 3.855 5.634-1.015 0.695c-0.537-0.738-1.066-1.14-1.587-1.204-0.52-0.064-1.066 0.083-1.636 0.441-0.565 0.354-1.216 0.783-1.953 1.287v0z" fill="#ffffff" data-fill-palette-color="primary"></path><path d="M66.888 226.024l-0.87 0.869c-0.664-0.627-1.262-0.929-1.795-0.906-0.532 0.023-1.049 0.261-1.548 0.712-0.5 0.442-1.066 0.979-1.698 1.61v0l-11.157 11.136c-0.472 0.471-0.884 0.873-1.238 1.207-0.344 0.334-0.651 0.598-0.92 0.791v0c0.334 0.297 0.669 0.594 1.003 0.891 0.334 0.297 0.664 0.594 0.988 0.892v0l-1.153 1.151-5.896-5.908 0.87-0.868c0.697 0.632 1.302 0.937 1.816 0.913 0.518-0.028 1.032-0.268 1.541-0.719 0.505-0.457 1.064-0.991 1.677-1.603v0l11.348-11.326c0.349-0.348 0.696-0.676 1.04-0.982 0.34-0.301 0.648-0.577 0.927-0.826v0c-0.33-0.292-0.659-0.59-0.989-0.891-0.334-0.297-0.669-0.594-1.003-0.892v0l1.16-1.158z" fill="#ffffff" data-fill-palette-color="primary"></path><path d="M64.295 256.394l-0.86-0.584 4.133-21.059c0.256-1.349 0.512-2.408 0.768-3.176 0.251-0.772 0.499-1.405 0.746-1.898v0c-0.302-0.173-0.596-0.356-0.882-0.551-0.287-0.195-0.581-0.378-0.882-0.551v0l0.921-1.356 7.119 4.836-0.739 1.033c-1.066-0.636-1.893-0.742-2.478-0.318-0.586 0.424-1.023 1.287-1.312 2.589v0c-0.33 1.54-0.65 3.026-0.963 4.458-0.318 1.428-0.644 2.987-0.978 4.677v0c-0.285 1.474-0.558 2.896-0.819 4.265-0.252 1.367-0.493 2.481-0.723 3.34v0l0.067 0.045c0.713-0.563 1.408-1.094 2.085-1.593 0.683-0.495 1.492-1.081 2.427-1.758v0c1.786-1.3 3.291-2.401 4.515-3.301 1.224-0.9 2.275-1.665 3.153-2.293 0.876-0.637 1.617-1.182 2.221-1.633v0c0.551-0.407 1.023-0.747 1.417-1.019 0.394-0.272 0.734-0.488 1.021-0.648v0c-0.401-0.24-0.803-0.485-1.205-0.734-0.401-0.24-0.815-0.49-1.244-0.748v0l0.921-1.356 6.234 4.235-0.691 1.017c-0.925-0.572-1.776-0.808-2.552-0.707-0.772 0.104-1.727 0.579-2.866 1.425v0c-0.112 0.069-0.257 0.171-0.438 0.306-0.177 0.13-0.47 0.342-0.879 0.636-0.405 0.288-0.995 0.718-1.769 1.287-0.776 0.561-1.825 1.322-3.147 2.285-1.324 0.953-2.993 2.152-5.005 3.596-2.013 1.444-4.451 3.195-7.316 5.253z" fill="#ffffff" data-fill-palette-color="primary"></path><path d="M96.66 262.271l-1.131-0.482c0.429-1.005 0.596-1.781 0.504-2.328-0.084-0.55-0.404-0.998-0.96-1.343-0.549-0.343-1.325-0.699-2.326-1.068v0l-2.535-0.961-3.332 7.816c-0.261 0.613-0.491 1.135-0.689 1.564-0.189 0.426-0.372 0.779-0.549 1.059v0l6.563 2.678c1.016 0.404 1.951 0.607 2.804 0.609 0.86 0.004 1.661-0.295 2.404-0.899 0.74-0.597 1.396-1.567 1.969-2.909v0l1.158 0.493-3.04 6.572-17.618-7.51 0.482-1.131c0.883 0.326 1.558 0.382 2.026 0.168 0.47-0.22 0.857-0.634 1.16-1.244 0.297-0.612 0.616-1.317 0.956-2.114v0l6.287-14.749c0.193-0.454 0.392-0.887 0.597-1.299 0.202-0.406 0.386-0.777 0.55-1.113v0c-0.415-0.148-0.832-0.3-1.25-0.457-0.421-0.151-0.842-0.301-1.264-0.452v0l0.643-1.508 16.423 7.001-2.382 6.047-1.122-0.478c0.572-1.343 0.801-2.448 0.685-3.316-0.115-0.868-0.469-1.569-1.059-2.103-0.591-0.534-1.322-0.977-2.195-1.326v0l-2.974-1.181c-0.85-0.333-1.519-0.43-2.006-0.29-0.493 0.137-0.904 0.48-1.232 1.029-0.325 0.542-0.688 1.282-1.087 2.22v0l-2.328 5.462 6.406 2.763 1.011-3.035 1.508 0.643z" fill="#ffffff" data-fill-palette-color="primary"></path><path d="M114.393 276.862l-8.201-1.556 0.23-1.208c0.932 0.129 1.603 0.04 2.014-0.269 0.413-0.315 0.702-0.803 0.868-1.463 0.159-0.662 0.32-1.418 0.482-2.269v0l2.99-15.752c0.092-0.484 0.194-0.95 0.306-1.397 0.111-0.44 0.211-0.842 0.299-1.205v0c-0.437-0.056-0.877-0.116-1.319-0.179-0.444-0.057-0.887-0.114-1.331-0.171v0l0.306-1.611c1.365 0.239 2.751 0.478 4.157 0.718 1.399 0.239 2.798 0.518 4.196 0.837v0c2.353 0.467 4.204 1.1 5.551 1.898 1.347 0.798 2.27 1.743 2.769 2.836 0.499 1.085 0.62 2.309 0.361 3.67v0c-0.154 0.954-0.514 1.886-1.08 2.796-0.561 0.918-1.409 1.669-2.544 2.254-1.13 0.593-2.655 0.91-4.576 0.953v0c0.42 0.432 0.763 0.949 1.028 1.548 0.258 0.605 0.553 1.305 0.884 2.101v0l1.734 4.368c0.288 0.733 0.579 1.399 0.873 1.997 0.287 0.597 0.657 1.095 1.11 1.493 0.454 0.398 1.057 0.669 1.81 0.812v0l-0.229 1.208-4.587-0.871c-0.587-0.769-1.059-1.514-1.417-2.233-0.351-0.725-0.706-1.535-1.065-2.43v0l-1.705-4.363c-0.217-0.57-0.462-1.227-0.735-1.971-0.273-0.744-0.62-1.396-1.043-1.958v0c-0.398-0.048-0.809-0.113-1.235-0.193-0.426-0.081-0.842-0.173-1.249-0.278v0l-1.343 7.07c-0.124 0.655-0.238 1.22-0.342 1.696-0.096 0.47-0.201 0.861-0.314 1.171v0c0.3 0.03 0.595 0.065 0.886 0.107 0.297 0.043 0.592 0.078 0.885 0.107 0.298 0.036 0.592 0.082 0.879 0.137v0zM116.559 264.057v0c1.352 0.202 2.569 0.206 3.65 0.011 1.082-0.195 1.994-0.663 2.739-1.403 0.744-0.741 1.248-1.805 1.511-3.193v0c0.175-0.923 0.201-1.756 0.078-2.498-0.124-0.742-0.41-1.394-0.861-1.954-0.442-0.565-1.057-1.042-1.845-1.429-0.781-0.386-1.732-0.685-2.851-0.897v0c-0.897-0.17-1.556-0.109-1.978 0.184-0.423 0.3-0.713 0.77-0.869 1.412-0.161 0.634-0.325 1.39-0.491 2.268v0l-1.327 6.992c0.388 0.101 0.753 0.197 1.095 0.289 0.35 0.087 0.733 0.159 1.149 0.218z" fill="#ffffff" data-fill-palette-color="primary"></path><path d="M149.783 261.256l-1.34 0.008c-0.08-1.186-0.37-2.307-0.869-3.363-0.506-1.063-1.231-1.925-2.174-2.587-0.943-0.661-2.145-0.987-3.604-0.979v0c-1.533 0.009-2.703 0.445-3.511 1.31-0.815 0.871-1.219 1.89-1.212 3.055v0c0.006 1.04 0.307 1.911 0.905 2.614 0.597 0.696 1.374 1.308 2.329 1.836 0.956 0.528 1.968 1.035 3.038 1.522v0c0.942 0.414 1.884 0.862 2.826 1.343 0.942 0.474 1.798 1.019 2.569 1.635 0.77 0.615 1.387 1.348 1.852 2.198 0.458 0.85 0.69 1.869 0.697 3.055v0c0.008 1.359-0.325 2.574-0.999 3.644-0.674 1.063-1.652 1.902-2.934 2.516-1.283 0.614-2.85 0.926-4.703 0.937v0c-1.113 0.006-2.263-0.147-3.451-0.46-1.195-0.313-2.25-0.777-3.167-1.391v0l0.199 1.598-1.929 0.011-0.275-7.905 1.449-0.009c0.139 2.178 0.905 3.827 2.298 4.945 1.386 1.112 3.058 1.662 5.017 1.651v0c0.96-0.005 1.848-0.187 2.666-0.545 0.811-0.365 1.458-0.895 1.94-1.591 0.476-0.696 0.711-1.54 0.705-2.533v0c-0.006-1.113-0.308-2.037-0.905-2.774-0.597-0.736-1.367-1.375-2.31-1.916-0.943-0.541-1.949-1.055-3.018-1.542v0c-0.942-0.414-1.871-0.856-2.786-1.323-0.916-0.461-1.755-0.993-2.519-1.595-0.756-0.602-1.367-1.322-1.831-2.159-0.458-0.837-0.69-1.852-0.697-3.044v0c-0.004-0.64 0.102-1.33 0.318-2.071 0.222-0.748 0.608-1.463 1.157-2.146 0.556-0.683 1.319-1.244 2.289-1.683 0.977-0.439 2.219-0.662 3.725-0.671v0c0.94-0.005 2 0.118 3.181 0.372 1.174 0.253 2.27 0.747 3.287 1.48v0l-0.159-1.588 1.899-0.011z" fill="#ffffff" data-fill-palette-color="primary"></path><path d="M163.488 251.247l0.198 1.214c-0.897 0.173-1.491 0.483-1.783 0.928-0.292 0.446-0.4 1.004-0.325 1.674 0.068 0.664 0.174 1.437 0.318 2.318v0l2.537 15.558c0.107 0.658 0.193 1.228 0.258 1.71 0.071 0.475 0.106 0.877 0.106 1.208v0c0.436-0.098 0.873-0.196 1.309-0.295 0.436-0.098 0.87-0.193 1.301-0.283v0l0.262 1.609-8.238 1.343-0.197-1.214c0.92-0.197 1.52-0.511 1.801-0.942 0.28-0.437 0.385-0.994 0.314-1.671-0.077-0.676-0.184-1.442-0.323-2.297v0l-2.581-15.824c-0.079-0.487-0.143-0.959-0.19-1.418-0.047-0.452-0.09-0.863-0.131-1.234v0c-0.43 0.097-0.863 0.191-1.301 0.283-0.436 0.098-0.873 0.196-1.309 0.294v0l-0.263-1.618z" fill="#ffffff" data-fill-palette-color="primary"></path><path d="M189.767 250.499l-1.329 0.469c-0.505-1.37-1.047-2.464-1.626-3.285-0.579-0.82-1.269-1.343-2.07-1.569-0.803-0.232-1.806-0.122-3.01 0.331v0l-2.978 1.051 6.702 19.078c0.222 0.628 0.407 1.174 0.557 1.638 0.147 0.457 0.25 0.848 0.308 1.174v0c0.481-0.198 0.956-0.394 1.425-0.588 0.475-0.196 0.954-0.39 1.438-0.582v0l0.542 1.536-8.228 2.905-0.41-1.159c0.87-0.357 1.397-0.776 1.581-1.258 0.181-0.488 0.177-1.059-0.011-1.713-0.189-0.654-0.423-1.377-0.702-2.169v0l-6.234-17.75-3.587 1.309c-1.47 0.519-2.335 1.372-2.595 2.559-0.264 1.195-0.028 2.833 0.706 4.913v0l-1.291 0.456-2.401-7.463 20.397-7.2z" fill="#ffffff" data-fill-palette-color="primary"></path><path d="M209.897 259.592l-7.12 4.354-0.642-1.049c0.777-0.53 1.215-1.047 1.312-1.552 0.094-0.511-0.019-1.066-0.34-1.667-0.326-0.597-0.715-1.265-1.167-2.004v0l-8.365-13.679c-0.257-0.421-0.494-0.834-0.711-1.24-0.214-0.4-0.409-0.765-0.587-1.094v0c-0.361 0.252-0.727 0.503-1.098 0.753-0.367 0.256-0.734 0.511-1.101 0.767v0l-0.855-1.398c1.172-0.74 2.359-1.494 3.562-2.26 1.197-0.763 2.421-1.496 3.671-2.198v0c2.057-1.235 3.853-2.009 5.387-2.322 1.535-0.314 2.853-0.233 3.955 0.24 1.099 0.468 2.01 1.294 2.733 2.477v0c0.527 0.81 0.886 1.743 1.078 2.797 0.201 1.057 0.077 2.183-0.371 3.379-0.439 1.198-1.356 2.458-2.75 3.779v0c0.601 0.038 1.202 0.19 1.802 0.456 0.598 0.275 1.286 0.596 2.065 0.964v0l4.22 2.071c0.706 0.349 1.368 0.647 1.987 0.893 0.614 0.25 1.222 0.37 1.826 0.36 0.603-0.01 1.232-0.214 1.885-0.614v0l0.642 1.049-3.983 2.435c-0.951-0.176-1.801-0.41-2.55-0.701-0.747-0.301-1.554-0.663-2.421-1.086v0l-4.194-2.087c-0.544-0.277-1.167-0.599-1.868-0.966-0.701-0.368-1.397-0.618-2.087-0.751v0c-0.327 0.231-0.676 0.46-1.045 0.686-0.37 0.226-0.74 0.437-1.113 0.634v0l3.755 6.14c0.348 0.569 0.643 1.064 0.885 1.485 0.245 0.413 0.429 0.772 0.554 1.079v0c0.242-0.179 0.484-0.351 0.728-0.515 0.249-0.168 0.491-0.34 0.728-0.516 0.245-0.174 0.493-0.337 0.743-0.489v0zM202.901 248.65v0c1.138-0.758 2.042-1.573 2.712-2.444 0.67-0.871 1.033-1.83 1.087-2.878 0.054-1.048-0.288-2.175-1.025-3.381v0c-0.49-0.802-1.03-1.436-1.62-1.903-0.59-0.467-1.24-0.757-1.95-0.87-0.707-0.122-1.483-0.062-2.327 0.181-0.838 0.239-1.743 0.656-2.715 1.25v0c-0.779 0.476-1.226 0.965-1.342 1.465-0.112 0.506-0.011 1.049 0.305 1.63 0.307 0.578 0.693 1.248 1.159 2.01v0l3.713 6.071c0.355-0.186 0.69-0.36 1.005-0.521 0.317-0.171 0.65-0.374 0.998-0.61z" fill="#ffffff" data-fill-palette-color="primary"></path><path d="M231.086 243.601l-4.916 4.895-0.867-0.871c0.524-0.522 0.787-1.061 0.788-1.617 0.006-0.561-0.143-1.178-0.449-1.853-0.305-0.674-0.659-1.46-1.062-2.356v0l-9.265-20.143 0.631-0.628 20.753 9.128c0.508 0.227 1.139 0.544 1.892 0.951 0.748 0.402 1.308 0.823 1.68 1.262v0c0.279-0.315 0.557-0.63 0.836-0.945 0.279-0.315 0.56-0.628 0.843-0.938v0l1.15 1.154-6.021 5.995-0.868-0.871c0.652-0.677 0.943-1.263 0.873-1.758-0.07-0.485-0.323-0.896-0.76-1.232-0.433-0.331-0.868-0.593-1.306-0.787v0l-3.382-1.556-6.681 6.962 1.879 3.729c0.296 0.543 0.519 0.984 0.669 1.323 0.145 0.344 0.307 0.729 0.485 1.153v0c0.335-0.372 0.664-0.736 0.985-1.093 0.321-0.357 0.642-0.71 0.963-1.058v0zM220.825 229.726l3.405 7.146 6.071-6.044-6.863-3.168c-0.739-0.355-1.476-0.698-2.21-1.029-0.73-0.336-1.462-0.679-2.196-1.03v0l-0.057 0.056c0.314 0.665 0.624 1.335 0.929 2.01 0.305 0.674 0.612 1.361 0.921 2.059z" fill="#ffffff" data-fill-palette-color="primary"></path><path d="M244.219 198.629l-0.738 1.118c-2.077-1.075-4.03-1.394-5.86-0.957-1.83 0.437-3.337 1.554-4.522 3.35v0c-0.723 1.096-1.167 2.276-1.331 3.541-0.173 1.267-0.065 2.548 0.325 3.844 0.39 1.296 1.059 2.551 2.005 3.767 0.946 1.215 2.184 2.328 3.714 3.337v0c1.941 1.281 3.898 2.042 5.872 2.282 1.977 0.235 3.794-0.003 5.452-0.713 1.656-0.719 2.987-1.841 3.994-3.365v0c0.888-1.346 1.459-2.87 1.711-4.571 0.243-1.7 0.06-3.346-0.55-4.938v0l1.18-0.371c0.634 1.688 0.941 3.268 0.92 4.739-0.017 1.466-0.244 2.789-0.68 3.971-0.442 1.178-0.942 2.189-1.5 3.034v0c-1.024 1.552-2.24 2.789-3.648 3.712-1.408 0.923-2.921 1.522-4.538 1.796-1.621 0.279-3.267 0.231-4.936-0.144-1.663-0.371-3.268-1.067-4.814-2.087v0c-1.468-0.969-2.748-2.133-3.839-3.492-1.089-1.35-1.899-2.838-2.43-4.466-0.525-1.624-0.673-3.33-0.442-5.119 0.23-1.788 0.938-3.581 2.123-5.377v0c0.763-1.157 1.641-2.147 2.631-2.97 0.989-0.833 2.119-1.512 3.393-2.037v0l-1.782-0.948 1.107-1.677z" fill="#ffffff" data-fill-palette-color="primary"></path><path d="M265.755 192.164l-2.887 7.831-1.154-0.425c0.281-0.898 0.304-1.575 0.067-2.032-0.243-0.459-0.676-0.825-1.3-1.097-0.626-0.266-1.346-0.549-2.158-0.849v0l-15.044-5.547c-0.463-0.171-0.905-0.348-1.327-0.532-0.416-0.182-0.796-0.347-1.139-0.494v0c-0.127 0.422-0.259 0.846-0.394 1.271-0.129 0.428-0.259 0.856-0.388 1.285v0l-1.538-0.567 2.887-7.832 1.154 0.426c-0.291 0.866-0.314 1.536-0.07 2.009 0.244 0.474 0.677 0.843 1.297 1.107 0.611 0.268 1.336 0.557 2.173 0.865v0l5.703 2.103 0.964-2.617-5.251-6.88c-0.352-0.471-0.724-1.031-1.117-1.679-0.395-0.643-0.695-1.265-0.899-1.866v0c-0.102 0.353-0.22 0.711-0.354 1.074-0.131 0.356-0.249 0.714-0.353 1.073v0l-1.435-0.529 2.76-7.484 1.153 0.425c-0.291 1.001-0.449 1.93-0.473 2.787-0.027 0.864 0.15 1.76 0.532 2.689 0.38 0.935 1.062 2.032 2.046 3.291v0l4.172 5.416c0.643-0.53 1.304-0.908 1.984-1.133 0.673-0.228 1.355-0.449 2.045-0.663v0l6.624-1.989c1.482-0.455 2.603-0.866 3.363-1.232 0.754-0.368 1.284-0.755 1.59-1.161 0.304-0.399 0.545-0.843 0.725-1.331v0l1.153 0.425-1.566 4.249c-0.085 0.231-0.361 0.478-0.827 0.739-0.468 0.268-1.042 0.525-1.723 0.771-0.689 0.25-1.409 0.5-2.161 0.748v0l-7.175 2.095c-0.745 0.23-1.458 0.467-2.139 0.714-0.689 0.25-1.239 0.538-1.649 0.862v0l-0.592 1.721 7.69 2.835c0.625 0.231 1.164 0.436 1.616 0.617 0.448 0.172 0.816 0.34 1.104 0.503v0c0.129-0.428 0.259-0.856 0.388-1.284 0.129-0.428 0.261-0.852 0.394-1.272v0z" fill="#ffffff" data-fill-palette-color="primary"></path><path d="M3.633 143.716c0-5.628 4.562-10.19 10.19-10.19 5.628 0 10.19 4.562 10.189 10.19 0 5.628-4.562 10.19-10.189 10.189-5.628 0-10.19-4.562-10.19-10.189z" fill="#ffffff" data-fill-palette-color="primary"></path><path d="M255.532 143.716c0-5.628 4.562-10.19 10.19-10.19 5.628 0 10.19 4.562 10.189 10.19 0 5.628-4.562 10.19-10.189 10.189-5.628 0-10.19-4.562-10.19-10.189z" fill="#ffffff" data-fill-palette-color="primary"></path></g></svg></g></svg></g></svg></g></svg></g><defs></defs></svg><rect width="280" height="280" fill="none" stroke="none" visibility="hidden"></rect></g></svg></g></svg>